# xmcd CD database file
#
# Track frame offsets:
#	150
#	20359
#	37263
#	60183
#	76415
#	97838
#	118162
#	134848
#	150881
#	173486
#	197334
#	218664
#	243331
#	266027
#	290949
#	311416
#
# Disc length: 4407 seconds
#
# Revision: 0
# Processed by: cddbd v1.5.2PL0 Copyright (c) Steve Scherf et al.
# Submitted via: CDex 1.70beta2
#
DISCID=d6113510
DTITLE=Galy Galiano - Solo Salsa - Sin Fronteras
DYEAR=1900
DGENRE=Salsa
TTITLE0=Te Olvidaste De Mí
TTITLE1=No Sirve Pa Na
TTITLE2=Fue Su Primera Vez
TTITLE3=Si Supieras
TTITLE4=La Cita
TTITLE5=Que Te Aleja De Mí
TTITLE6=El Galy Galy (Tu Abuela)
TTITLE7=Como La Quiero, Como La Extraño
TTITLE8=Deja De Llorar
TTITLE9=Hoy Serás Mi Mujer
TTITLE10=Mi Despedida
TTITLE11=Nadie Es Como Tú
TTITLE12=Quien Entiende Este Amor
TTITLE13=Ella Fue Mi Mujer
TTITLE14=Como Olvidarlas
TTITLE15=La Recuerdo Más
EXTD=
EXTT0=
EXTT1=
EXTT2=
EXTT3=
EXTT4=
EXTT5=
EXTT6=
EXTT7=
EXTT8=
EXTT9=
EXTT10=
EXTT11=
EXTT12=
EXTT13=
EXTT14=
EXTT15=
PLAYORDER=
